<svg width="29" height="20" viewBox="0 0 29 20" fill="none" xmlns="http://www.w3.org/2000/svg">
<path d="M23.385 1.67671C21.6745 0.879656 19.8717 0.318797 18.0222 0C17.77 0.461742 17.5387 0.934541 17.3346 1.4184C15.3668 1.12145 13.3612 1.12145 11.3921 1.4184C11.1828 0.934541 10.9528 0.461744 10.7006 0.00546311C8.84451 0.324393 7.04172 0.885118 5.33123 1.68231C1.93104 6.77853 1.01344 11.7538 1.47485 16.652C3.46479 18.1418 5.68997 19.2743 8.05554 20C8.58715 19.2743 9.05896 18.4993 9.46189 17.691C8.69373 17.3997 7.94899 17.0424 7.24061 16.6135C7.42908 16.4762 7.61103 16.3387 7.7878 16.1847C11.9549 18.1749 16.7718 18.1749 20.9401 16.1847C21.1169 16.3332 21.2989 16.4762 21.4809 16.6135C20.7738 17.0369 20.0277 17.3997 19.2608 17.691C19.669 18.4993 20.1356 19.2689 20.6659 19.9945C23.0315 19.2689 25.2567 18.1364 27.2466 16.6466H27.2531C27.7938 10.9731 26.3303 6.04728 23.385 1.67671ZM10.0442 13.6383C8.76131 13.6383 7.70462 12.4453 7.70462 10.994C7.70462 9.54272 8.73532 8.34973 10.0442 8.34973C11.3531 8.34973 12.4033 9.54272 12.3825 10.994C12.3825 12.4453 11.3466 13.6383 10.0442 13.6383ZM18.6799 13.6383C17.397 13.6383 16.3403 12.4453 16.3403 10.994C16.3403 9.54272 17.3762 8.34973 18.6799 8.34973C19.9822 8.34973 21.0389 9.54272 21.0181 10.994C21.0181 12.4453 19.9822 13.6383 18.6799 13.6383Z" fill="white"/>
</svg>
