<svg width="120" height="90" viewBox="0 0 120 90" fill="none" xmlns="http://www.w3.org/2000/svg">
<g filter="url(#filter0_ii_3986_640)">
<rect width="120" height="90" fill="#FFE5EF"/>
</g>
<rect x="0.5" y="0.5" width="119" height="89" stroke="#939393"/>
<g filter="url(#filter1_d_3986_640)">
<path d="M119 27L60 40L1 27" stroke="#949294"/>
</g>
<path d="M71.784 48.992L68.008 52.608C65.128 50.496 61.96 47.904 59.688 45.76C58.504 44.64 57.928 43.488 57.928 42.4C57.928 41.12 58.728 39.936 60.232 39.04C61.352 38.368 62.856 37.44 63.496 36.928C64.04 36.48 64.392 35.936 64.392 35.424C64.392 34.88 64.008 34.4 62.984 34.112C62.056 33.856 60.84 33.728 59.432 33.728C57.32 33.728 54.824 34.016 52.424 34.496L57.288 34.688L56.776 52.352L51.656 52.128L52.136 34.56C51.496 34.688 50.888 34.848 50.28 35.008L49.32 30.272C52.712 29.536 55.976 29.12 58.952 29.12C61.064 29.12 63.016 29.312 64.776 29.728C67.88 30.432 69.8 32.704 69.8 35.168C69.8 36.992 68.776 38.912 66.408 40.48C65.864 40.832 64.52 41.6 63.816 41.984C63.4 42.208 63.208 42.4 63.208 42.624C63.208 42.816 63.336 43.008 63.592 43.2C65.512 44.8 69.064 47.392 71.784 48.992Z" fill="#AE301F"/>
<defs>
<filter id="filter0_ii_3986_640" x="-2" y="-2" width="122" height="92" filterUnits="userSpaceOnUse" color-interpolation-filters="sRGB">
<feFlood flood-opacity="0" result="BackgroundImageFix"/>
<feBlend mode="normal" in="SourceGraphic" in2="BackgroundImageFix" result="shape"/>
<feColorMatrix in="SourceAlpha" type="matrix" values="0 0 0 0 0 0 0 0 0 0 0 0 0 0 0 0 0 0 127 0" result="hardAlpha"/>
<feOffset dx="-2" dy="-2"/>
<feGaussianBlur stdDeviation="1"/>
<feComposite in2="hardAlpha" operator="arithmetic" k2="-1" k3="1"/>
<feColorMatrix type="matrix" values="0 0 0 0 0 0 0 0 0 0 0 0 0 0 0 0 0 0 0.25 0"/>
<feBlend mode="normal" in2="shape" result="effect1_innerShadow_3986_640"/>
<feColorMatrix in="SourceAlpha" type="matrix" values="0 0 0 0 0 0 0 0 0 0 0 0 0 0 0 0 0 0 127 0" result="hardAlpha"/>
<feOffset dy="2"/>
<feComposite in2="hardAlpha" operator="arithmetic" k2="-1" k3="1"/>
<feColorMatrix type="matrix" values="0 0 0 0 0 0 0 0 0 0 0 0 0 0 0 0 0 0 0.1 0"/>
<feBlend mode="normal" in2="effect1_innerShadow_3986_640" result="effect2_innerShadow_3986_640"/>
</filter>
<filter id="filter1_d_3986_640" x="0.892334" y="26.5117" width="118.215" height="15" filterUnits="userSpaceOnUse" color-interpolation-filters="sRGB">
<feFlood flood-opacity="0" result="BackgroundImageFix"/>
<feColorMatrix in="SourceAlpha" type="matrix" values="0 0 0 0 0 0 0 0 0 0 0 0 0 0 0 0 0 0 127 0" result="hardAlpha"/>
<feOffset dy="1"/>
<feComposite in2="hardAlpha" operator="out"/>
<feColorMatrix type="matrix" values="0 0 0 0 0 0 0 0 0 0 0 0 0 0 0 0 0 0 0.1 0"/>
<feBlend mode="normal" in2="BackgroundImageFix" result="effect1_dropShadow_3986_640"/>
<feBlend mode="normal" in="SourceGraphic" in2="effect1_dropShadow_3986_640" result="shape"/>
</filter>
</defs>
</svg>
